<svg xmlns="http://www.w3.org/2000/svg" width="24" height="24" class="icon" viewBox="0 0 1024 1024">
    <path fill="#E2574C" d="M512 0a512 512 0 1 1 0 1024A512 512 0 0 1 512 0z" />
    <path fill="#CD4F45"
        d="M757.5 392a19 19 0 0 0-17 5.2L594.7 545.7c-14.7 14.7-64 4-97.3-9-13-33.2-23.7-82.6-9-97.2l149.2-145a18.7 18.7 0 0 0 5.1-17 18.9 18.9 0 0 0-11.5-13.7 250.2 250.2 0 0 0-269.5 55.5 249.1 249.1 0 0 0-67.2 231.4c-2.4 40.3-39 87.6-58 106.9L90.8 803a514.5 514.5 0 0 0 139.6 136.5L369.2 801c19.5-19.2 72-55.4 112-59.5 6.1.4 18.6 1.2 21.4 1.8v-.2a250 250 0 0 0 213-70.2 249.8 249.8 0 0 0 55.6-269.3 18.8 18.8 0 0 0-13.7-11.5z" />
    <path fill="#EDEDED"
        d="M757.5 381.8a19 19 0 0 0-17 5.2L594.7 535.5c-14.7 14.7-64 4-97.3-9-13-33.2-23.7-82.6-9-97.3l149.2-145a18.7 18.7 0 0 0 5.1-17 18.9 18.9 0 0 0-11.5-13.7 250.2 250.2 0 0 0-269.5 55.6 249.1 249.1 0 0 0-67.2 231.4c-2.4 40.3-39 87.6-58 106.9L86.6 797a514.7 514.7 0 0 0 137.6 138.5l145-144.8c19.4-19.2 72-55.3 112-59.5 6.1.4 18.6 1.2 21.4 1.9v-.3a250 250 0 0 0 213-70.2 249.8 249.8 0 0 0 55.6-269.3 18.8 18.8 0 0 0-13.7-11.5z" />
    <path fill="#E1E1E1"
        d="M787 456.3c1.4 11 2 22.2 1.8 33.3a249.7 249.7 0 0 0-17.6-86 18.8 18.8 0 0 0-30.8-6.4L594.8 545.7c-14.7 14.7-64 4-97.3-9l-3.3-9-345.3 345.2a513.8 513.8 0 0 0 75.3 62.6l145-144.8c19.5-19.2 72-55.3 112-59.5 6.1.4 18.6 1.2 21.4 1.9v-.3a250 250 0 0 0 213-70.2 249.6 249.6 0 0 0 71.5-206.3zm-8.8-42.9-1.5-4.7 1.5 4.7zm8.3 38.2zm-3.3-18.6-1.8-7.7 1.8 7.7z" />
    <path fill="#F4F4F4"
        d="M361.8 319.3a250.2 250.2 0 0 1 269.5-55.5c5.5 2.2 9.6 6.8 11.1 12.5.9-3 1-6 .4-9.1a18.9 18.9 0 0 0-11.5-13.7 250.2 250.2 0 0 0-269.5 55.6 249 249 0 0 0-73.2 179.3 249 249 0 0 1 73.2-169.1zm-125.2 328L86.6 797l4.2 6 145.8-145.4c19-19.3 55.6-66.6 58-106.9l-.8-3.7c-5.5 38.8-39.3 82.1-57.2 100.4z" />
    <path fill="#CCD0D2"
        d="M294 693.4 132.1 855.3a515.4 515.4 0 0 0 36.3 36.2l161.9-161.8a25.6 25.6 0 1 0-36.3-36.3z" />
    <path fill="#B8BCBE"
        d="M294 693.4 132.1 855.3l5 5.3 156.9-157a25.6 25.6 0 0 1 43.2 13 25.6 25.6 0 0 0-43.2-23.2z" />
</svg>
